<!-- <svg xmlns="http://www.w3.org/2000/svg" xmlns:xlink="http://www.w3.org/1999/xlink" id="Layer_1" viewBox="0 0 155.2 232.3">
    <style>
        .st0{clip-path:url(#SVGID_2_);fill:#d10500}
    </style>
    <defs>
        <path id="SVGID_1_" d="M0 0h155.2v232.3H0z"/>
    </defs>
    <clipPath id="SVGID_2_">
        <use overflow="visible" xlink:href="#SVGID_1_"/>
    </clipPath>
    <path fill="" d="M151.6 83.7c-.9-1.1-1.3-2.9.4-4.7.2-.2.4-.5.7-.8l.1-.1c.4-.4.7-.7.9-1.1.1-.1.2-.3.3-.4l.1-.2c.8-1 1.1-1.4 1-2.1l-.1-1.4c-.1-1.4-.3-2.9-.5-4.4l-.1-.7.2-.5v-.1c-.6-4.6-1.6-9.2-3.1-13.7-.3-1-.7-1.9-1-2.9-.9.5-2.1.6-3.2.2-1.9-.8-2.6-2.5-2-4.5.1-.3.2-.6.3-1 .2-.5.3-1 .4-1.4.3-1.7.5-2.6 0-3.5-2.8-4.9-5.4-8.7-8.1-11.9-.3-.4-.7-.8-1-1.2-.7 1-1.9 1.6-3.3 1.4-1.3-.1-3-1.1-3.1-3.5l-.1-1c0-.7-.1-1.2-.1-1.7 0-.2-.1-.4-.1-.6v-.1c-.2-1.3-.3-1.8-.8-2.2-3.3-2.8-7.3-5.9-11.8-8.6-.6-.3-1.1-.7-1.7-1-.3 1-1 1.9-1.8 2.3-1.8.9-3.8.3-4.7-1.6-.1-.2-.1-.3-.2-.4l-.1-.3c0-.1 0-.1-.1-.2-.2-.3-.3-.6-.5-.9l-.3-.6c-.5-1-.9-1.9-1.5-2.7 0-.1-.2-.2-.3-.2l-.4-.1c-2.7-1-5.4-1.9-8.1-2.7-2.4-.7-4.9-1.3-7.5-1.7.3 1.6-.5 2.8-1.6 3.5-1.1.8-3.1 1.2-5-.8-1.3-1.3-2.6-2.6-3.9-3.7.3.2.2.1.1.1-5.3-.2-10.8.3-16.4 1.2 1.1 1.7.3 3.2-.1 3.8-.6.8-2.3 2.5-5.1.9l-.1-.1c-.2-.1-.5-.2-.7-.3l-.5-.2c-1.2-.5-2.4-1-3.5-1.4-.2-.1-.5 0-.7 0-5.1 1.7-10.1 4-14.8 6.8.8.7 1.4 1.9 1.4 3 0 .9-.3 1.8-1 2.4-.8.7-1.7 1-2.7 1H35c-.3 0-.5-.1-.8-.1l-.4-.1c-.8-.1-1.6-.2-2.4-.2h-.5c-.7 0-1.3 0-1.5.2-4.4 3.5-8.3 7.4-11.7 11.6.5.2.9.4 1.3.7.7.6 1 1.5 1.1 2.4 0 1.9-1 3.2-3.1 3.8h-.1c-2 .5-3.7 1.1-5.2 1.6 0 0 0 .1-.1.1-2.9 4.6-5.2 9.6-7.1 14.8 1.2 0 2.3.6 3 1.7 1 1.8.5 3.7-1 4.8l-.2.1c-.1.1-.2.1-.3.2l-.2.1c-.1 0-.1.1-.2.1l-.6.5c-1.1.9-2.2 1.7-3.3 2.6C.7 66.7.2 71.3 0 75.8V81.3c.1 1.1.1 2.2.2 3.3 1.3-.4 2.4.1 3.2.7 1 .8 2 2.4.5 4.9l.1.3c-.9 1.6-1.6 2.7-2.1 3.8.2 1 .4 1.9.7 2.9.5 2 1.1 4 1.8 6v.1c.5 1.5 1.1 3 1.7 4.5.4.9.8 1.9 1.3 2.8.3-.2.6-.4.9-.5.7-.2 1.5-.2 2.3 0 1.9.6 2.8 2.3 2.3 4.4 0 .3-.1.7-.2 1-.1.5-.2 1-.3 1.4v.2c-.2 1.7-.2 2.4.3 3.2 2.1 3 66.4 112.1 66.4 112.1s65.4-114.3 67.4-118.4c.5-.9.9-1.8 1.4-2.8-.3-.1-.6-.2-.9-.4-.6-.4-1.1-1-1.5-1.7-.7-1.9 0-3.6 1.8-4.6.3-.2.6-.3.9-.5.5-.3.9-.4 1.3-.7 1.5-.9 2.2-1.4 2.4-2.4.2-.6.3-1.1.5-1.7.9-3.5 1.6-6.7 2-9.7.1-.9.3-1.8.4-2.7.1-.5.1-1 .2-1.5-1.4 0-2.6-.5-3.4-1.6M47.5 72.1v-.2C49 64.7 53 58.2 59.1 53.2c1.4-1 6.4-4.2 9.5-5.2 3-1 6.1-1.5 9.1-1.5 1.2 0 2.3.1 3.4.2 2.1.3 4.1.8 6.5 1.5.2.1.9.4 1.8.8l1.1.5c2.2 1 4 2.3 4.7 2.8 1 .8 1.9 1.4 2.6 2 1.6 1.4 3 2.9 4.2 4.5 3.6 4.8 5.6 10 6.1 15.5v.1c.2 2.2.2 4.6-.1 7.2l-.1.3c0 .2-.1.3-.1.4-.6 2.8-1.3 5.5-1.9 7l-1.4 3c-.1.1-.1.2-.1.3l-1.3 1.8c-1.3 1.7-2.5 3.2-3.3 4.1-.1.2-.3.3-.5.5l-.1.1c-1 1-2.1 1.9-3.1 2.7-4.7 3.5-9.8 5.6-15 6.1-1.3.1-2.6.2-4 .2-2.6 0-5.1-.3-7.3-.9-6.1-1.6-11-4.7-15.3-9.7l-.5-.6c-.8-1-1.5-1.9-2.1-2.8h.1c-.3-.5-.7-1.1-1.1-1.8l-.6-1.1-.3-.6-.2-.6c-.5-1.1-.9-2.3-1.3-3.4-.2-.5-.3-1.1-.4-1.6l-.3-1.3-.2-.5-.1-.6c-.1-.4-.2-.9-.2-1.2l-.1-.4c-.4-3-.3-5.9.3-8.9" class="st0"/>
</svg> -->

<svg xmlns="http://www.w3.org/2000/svg" version="1.0" width="830.000000pt" height="1280.000000pt" viewBox="0 0 830.000000 1280.000000" preserveAspectRatio="xMidYMid meet">
<g transform="translate(0.000000,1280.000000) scale(0.100000,-0.100000)" fill="#d10500" stroke="none">
<path d="M3855 12789 c-555 -44 -1043 -176 -1530 -414 -1457 -712 -2370 -2223 -2322 -3840 19 -605 152 -1155 406 -1680 109 -225 183 -353 331 -575 65 -96 856 -1369 1760 -2827 903 -1459 1646 -2653 1650 -2653 4 0 747 1194 1650 2652 904 1459 1695 2732 1760 2828 148 222 222 350 331 575 421 869 520 1869 279 2821 -244 958 -822 1795 -1640 2371 -696 491 -1551 759 -2404 752 -94 -1 -216 -5 -271 -10z m635 -1764 c440 -80 813 -271 1120 -575 769 -761 825 -1980 130 -2812 -335 -402 -817 -663 -1344 -728 -114 -14 -378 -14 -492 0 -853 105 -1550 715 -1764 1544 -141 545 -52 1136 243 1613 330 531 862 876 1497 968 130 19 481 13 610 -10z"/>
</g>
</svg>