<svg width="83" height="107" viewBox="0 0 83 107" fill="none" xmlns="http://www.w3.org/2000/svg">
<g filter="url(#filter0_d)">
<path d="M68.2 24.6L54.7 26.8C54.4 26.6 54.2 26.3 53.9 26.1C49.9 22.7 45.3 21.5 40.5 21.3C37.7 21.1 35 21.6 32.3 22.5C29.2 23.6 26.3 25.3 24 28.4C23.1 29.6 22.5 30.8 22 32.1L9.6 34.1C9.8 29.6 11.2 25.4 13.8 21.5C16.7 17 20.5 14 24.7 11.8C32.3 7.8 40.2 6.9 48.2 8.8C53.8 10.2 59 12.8 63.4 17.5C65.5 19.7 67 22 68.2 24.6Z" fill="#D10500"/>
<path d="M73 36.2C72.4 40.4 70.7 44.1 68.6 47.7C68.3 48.2 68.2 48.4 68.1 48.7L13.3 57.7C14.3 55.1 15.6 52.6 17.2 50.2C18.3 48.6 18.3 49 17.3 47.3C15.8 45 14.6 42.5 13.8 39.9C13 37.5 12.7 35.1 12.7 32.8L25 30.8C24.3 32.8 24.4 34.9 25.3 37.2C25.8 38.4 26.5 39.5 27.2 40.6C28.2 42.1 28.3 42.1 29.8 41.3C35.4 38.3 41.3 37.2 47.4 38.3C50.8 38.9 53.9 40.2 57 41.9C57.5 42.2 58 42.4 58.4 41.7C59.3 40 60.5 38.4 61.1 36.6C62.3 33.3 61.9 30.2 59.7 27.5C59.1 26.7 58.3 26 57.6 25.4L71 23.2C73 26.9 73.8 31.2 73 36.2Z" fill="#D10500"/>
<path d="M75.7 72.3L9.9 82.8C8 77.7 7.4 72.2 8 66.3C8.3 63.1 9.1 60 10.3 57.1L67.8 48C67.7 48.3 68 48.6 68.4 49.3C73.3 56.2 75.9 63.9 75.7 72.3Z" fill="#D10500"/>
<path d="M75.7 71.3C75.7 72.6 75.6 73.9 75.4 75.2C74.4 83.1 71.3 89.9 65.4 94.9C63.5 96.5 61.6 98 59.2 98.4C57.2 98.8 55.1 99 53.1 99.2C51.4 99.4 49.7 99.4 48 99.6H39.1C38.7 99.5 38.4 99.5 38 99.4C35.1 99.2 32.3 99 29.4 98.8C26.6 98.6 24.2 97.8 22.2 95.6C20.9 94.2 19.4 92.8 18.3 91.3C16 88.3 14.3 85 13 81.6L75.7 71.3Z" fill="#D10500"/>
<g clip-path="url(#clip0)">
<path d="M35.491 73.359L43 65.49L50.509 73.359" stroke="#D7D7D7" stroke-width="3"/>
</g>
</g>
<defs>
<filter id="filter0_d" x="0.776535" y="0.844444" width="81.9342" height="105.756" filterUnits="userSpaceOnUse" color-interpolation-filters="sRGB">
<feFlood flood-opacity="0" result="BackgroundImageFix"/>
<feColorMatrix in="SourceAlpha" type="matrix" values="0 0 0 0 0 0 0 0 0 0 0 0 0 0 0 0 0 0 127 0"/>
<feOffset/>
<feGaussianBlur stdDeviation="3.5"/>
<feColorMatrix type="matrix" values="0 0 0 0 0 0 0 0 0 0 0 0 0 0 0 0 0 0 0.25 0"/>
<feBlend mode="normal" in2="BackgroundImageFix" result="effect1_dropShadow"/>
<feBlend mode="normal" in="SourceGraphic" in2="effect1_dropShadow" result="shape"/>
</filter>
<clipPath id="clip0">
<rect width="19.5" height="14.5" fill="white" transform="translate(34 64)"/>
</clipPath>
</defs>
</svg>
